<?xml version="1.0" encoding="UTF-8"?>
<!DOCTYPE svg PUBLIC "-//W3C//DTD SVG 1.1//EN" "http://www.w3.org/Graphics/SVG/1.1/DTD/svg11.dtd">
<!-- Creator: CorelDRAW 2021 (64-Bit) -->
<svg xmlns="http://www.w3.org/2000/svg" xml:space="preserve" 
width="5.8918mm" height="12.7mm" version="1.1" style="shape-rendering:geometricPrecision; text-rendering:geometricPrecision; image-rendering:optimizeQuality; fill-rule:evenodd; clip-rule:evenodd"
viewBox="0 0 2.4 5.17"
 xmlns:xlink="http://www.w3.org/1999/xlink"
 xmlns:xodm="http://www.corel.com/coreldraw/odm/2003">
 <defs>
  <style type="text/css">
   <![CDATA[
    .fil0 {fill:white}
   ]]>
  </style>
 </defs>
 <g id="Layer_x0020_1">
  <metadata id="CorelCorpID_0Corel-Layer"/>
  <path className="fil0" d="M0.92 1.04l0.16 -1.03c-0.06,0 -0.11,0.02 -0.12,0.06 -0.01,0.02 -0.02,0.12 -0.03,0.15l-0.18 0.93c0.07,0.02 0.17,0.02 0.25,0.03 0.08,0.01 0.15,0.03 0.23,0.05 0.16,0.04 0.28,0.09 0.41,0.14 -0.27,-0.06 -0.31,-0.12 -0.69,-0.13 -0.17,-0.01 -0.66,-0 -0.71,0.13 0.03,0.11 0.3,0.11 0.41,0.17 0.01,0.04 -0.02,0.1 -0.02,0.15 -0.01,0.06 0.01,0.13 -0.02,0.17 -0.19,0.31 -0.11,0.28 -0.03,0.31 0.02,0.01 -0.01,-0.01 0.02,0.01 0.06,0.03 -0.01,0.07 0,0.16 -0.16,0.06 -0.21,0.12 -0.29,0.25 -0.02,0.04 -0.05,0.08 -0.09,0.1 -0.04,-0.1 -0.12,-0.09 -0.2,-0.03 -0.02,0.11 0.02,0.21 0.1,0.23 0.15,0.04 0.22,-0.18 0.3,-0.35 0.04,-0.07 0.08,-0.16 0.17,-0.18 0.03,0.08 0.06,0.04 0.05,0.13 -0.01,0.06 -0.03,0.13 0.04,0.16 0.09,0.04 0.25,-0.03 0.34,-0.04 0.02,0.06 -0.03,0.25 0.32,0.19 0.16,-0.03 0.36,-0.11 0.47,-0.21 0.03,-0.03 0.04,-0.03 0.03,-0.09 -0.04,-0.37 0.01,-0.24 0.1,-0.42 0.03,-0.06 0.05,-0.14 0.06,-0.21 0.14,0.02 0.27,0.09 0.42,0.06 0.02,-0.1 -0.1,-0.17 -0.14,-0.21 -0.05,-0.04 -0.16,-0.13 -0.22,-0.15 0,-0.1 0.2,-0.73 0.25,-0.89 0.02,-0.07 0.1,-0.24 0.07,-0.3 -0.1,-0.17 -0.86,-0.4 -1.16,-0.37l-0.28 1.04zm0.26 1.89c-0.06,-0.04 -0.09,-0.08 -0.13,-0.08 -0.03,0.06 -0.05,0.2 -0.02,0.27 0.05,0.01 0.09,-0.05 0.13,-0.08 0.04,-0.02 0.03,0.01 0.07,0.02 0.05,0.01 0.05,-0.01 0.09,-0.02 0.05,0.03 0.18,0.12 0.23,0.12 0.05,-0.06 0.06,-0.28 0.01,-0.34 -0.05,-0.01 -0.14,0.06 -0.19,0.08 -0.06,0.03 -0.04,0.03 -0.09,0.01 -0.05,-0.02 -0.07,0.01 -0.1,0.02zm-0.13 1.62c-0.09,-0.52 -0.13,-1.11 -0.08,-1.64 -0.03,0.01 -0.17,0.06 -0.2,0.08 -0.05,0.03 -0.07,0.12 -0.09,0.19 -0.02,0.08 -0.11,0.39 -0.08,0.45l0.19 0.01c-0.03,0.05 -0.16,0.12 -0.17,0.14 -0.04,0.1 0.31,1.3 0.41,1.39l0.24 -0.38c0.12,-0.19 0.45,-0.66 0.6,-0.8l0.16 -0.16c0.03,-0.02 0.06,-0.05 0.09,-0.07 -0.03,-0.04 -0.21,-0.13 -0.28,-0.17l0.37 0.05c0.01,-0.09 0.06,-0.61 0.05,-0.65 -0.01,-0.01 -0.23,-0.14 -0.27,-0.15 -0.16,0.16 -0.42,0.6 -0.53,0.79 -0.08,0.14 -0.15,0.29 -0.22,0.44l-0.16 0.42c-0.01,0.04 -0.01,0.03 -0.03,0.06z"/>
 </g>
</svg>
